<svg width="79" height="83" viewBox="0 0 79 83" fill="none" xmlns="http://www.w3.org/2000/svg">
<rect x="1.43775" y="2.28554" width="75.4435" height="79.0332" rx="13" transform="rotate(-0.337113 1.43775 2.28554)" fill="white" stroke="url(#paint0_linear)" stroke-width="2"/>
<line x1="33" y1="34.9287" x2="49" y2="34.9287" stroke="#00203F" stroke-width="5"/>
<path d="M33.005 7.00269C29.0268 7.00201 25.2112 8.60429 22.3977 11.457C19.5842 14.3098 18.0032 18.1793 18.0025 22.2144C18.0018 26.2495 19.5816 30.1196 22.3941 32.9733C25.2067 35.827 29.0218 37.4306 33 37.4313L33.0008 32.3497C30.3513 32.3492 27.8105 31.2813 25.9373 29.3807C24.0642 27.4801 23.0121 24.9026 23.0125 22.2153C23.013 19.5279 24.0659 16.9508 25.9397 15.0509C27.8135 13.1509 30.3547 12.0838 33.0042 12.0843L33.005 7.00269Z" fill="#00203F"/>
<path d="M49 62.7858C52.9782 62.7858 56.7936 61.1829 59.6066 58.3297C62.4196 55.4764 64 51.6066 64 47.5716C64 43.5365 62.4196 39.6667 59.6066 36.8134C56.7936 33.9602 52.9782 32.3573 49 32.3573L49 37.4388C51.6495 37.4388 54.1905 38.5064 56.064 40.4066C57.9375 42.3069 58.99 44.8842 58.99 47.5716C58.99 50.2589 57.9375 52.8362 56.064 54.7365C54.1905 56.6367 51.6495 57.7043 49 57.7043V62.7858Z" fill="#ADEFD1"/>
<path d="M38 42.9716C38 41.5908 39.1193 40.4716 40.5 40.4716V40.4716C41.8807 40.4716 43 41.5908 43 42.9716V75.5001C43 76.8808 41.8807 78.0001 40.5 78.0001V78.0001C39.1193 78.0001 38 76.8808 38 75.5001V42.9716Z" fill="#ADEFD1"/>
<path d="M30.5 9.53584C30.5 8.1354 31.6353 7.00012 33.0357 7.00012H48.9643C50.3647 7.00012 51.5 8.1354 51.5 9.53584V9.53584C51.5 10.9363 50.3647 12.0716 48.9643 12.0716H33.0357C31.6353 12.0716 30.5 10.9363 30.5 9.53584V9.53584Z" fill="#00203F"/>
<path d="M21 60.2501C21 58.8497 22.1353 57.7144 23.5357 57.7144H34.4643C35.8647 57.7144 37 58.8497 37 60.2501V60.2501C37 61.6506 35.8647 62.7858 34.4643 62.7858H23.5357C22.1353 62.7858 21 61.6506 21 60.2501V60.2501Z" fill="#00203F"/>
<path d="M39 60.2501C39 58.8497 40.1353 57.7144 41.5357 57.7144H48.4643C49.8647 57.7144 51 58.8497 51 60.2501V60.2501C51 61.6506 49.8647 62.7858 48.4643 62.7858H41.5357C40.1353 62.7858 39 61.6506 39 60.2501V60.2501Z" fill="#ADEFD1"/>
<rect x="37" y="32.3573" width="12" height="5.07143" fill="#ADEFD1"/>
<rect x="35" y="57.7144" width="2" height="5.07143" fill="#00203F"/>
<defs>
<linearGradient id="paint0_linear" x1="0.431885" y1="1.29144" x2="80.999" y2="80.3507" gradientUnits="userSpaceOnUse">
<stop stop-color="#ADEFD1"/>
<stop offset="0.482513" stop-color="#ADEFD1"/>
<stop offset="0.48629" stop-color="#00203F"/>
<stop offset="1" stop-color="#00203F"/>
</linearGradient>
</defs>
</svg>
